<mxfile host="app.diagrams.net" modified="2022-04-06T09:55:24.315Z" agent="5.0 (Windows NT 10.0; Win64; x64) AppleWebKit/537.36 (KHTML, like Gecko) Chrome/100.0.4896.60 Safari/537.36 Edg/100.0.1185.29" etag="Konpi42dp-sGxWd4yssi" version="17.3.0" type="github">
  <diagram id="JWHZXMgrpeEiZYdzucM5" name="第 1 页">
    <mxGraphModel dx="1038" dy="547" grid="1" gridSize="10" guides="1" tooltips="1" connect="1" arrows="1" fold="1" page="1" pageScale="1" pageWidth="827" pageHeight="1169" math="0" shadow="0">
      <root>
        <mxCell id="0" />
        <mxCell id="1" parent="0" />
        <mxCell id="f_67vPmNaKxFUw4pG06K-1" value="Gitlab" style="swimlane;" vertex="1" parent="1">
          <mxGeometry x="80" y="50" width="480" height="180" as="geometry" />
        </mxCell>
        <mxCell id="f_67vPmNaKxFUw4pG06K-2" value="main branch" style="rounded=1;whiteSpace=wrap;html=1;" vertex="1" parent="f_67vPmNaKxFUw4pG06K-1">
          <mxGeometry x="30" y="99" width="110" height="50" as="geometry" />
        </mxCell>
        <mxCell id="f_67vPmNaKxFUw4pG06K-12" style="edgeStyle=orthogonalEdgeStyle;rounded=0;orthogonalLoop=1;jettySize=auto;html=1;exitX=0;exitY=0.5;exitDx=0;exitDy=0;entryX=1;entryY=0.5;entryDx=0;entryDy=0;" edge="1" parent="f_67vPmNaKxFUw4pG06K-1" source="f_67vPmNaKxFUw4pG06K-3" target="f_67vPmNaKxFUw4pG06K-11">
          <mxGeometry relative="1" as="geometry" />
        </mxCell>
        <mxCell id="f_67vPmNaKxFUw4pG06K-3" value="develop branch" style="rounded=1;whiteSpace=wrap;html=1;" vertex="1" parent="f_67vPmNaKxFUw4pG06K-1">
          <mxGeometry x="320" y="99" width="110" height="50" as="geometry" />
        </mxCell>
        <mxCell id="f_67vPmNaKxFUw4pG06K-13" style="edgeStyle=orthogonalEdgeStyle;rounded=0;orthogonalLoop=1;jettySize=auto;html=1;exitX=0;exitY=0.5;exitDx=0;exitDy=0;" edge="1" parent="f_67vPmNaKxFUw4pG06K-1" source="f_67vPmNaKxFUw4pG06K-11" target="f_67vPmNaKxFUw4pG06K-2">
          <mxGeometry relative="1" as="geometry" />
        </mxCell>
        <mxCell id="f_67vPmNaKxFUw4pG06K-11" value="合并" style="rhombus;whiteSpace=wrap;html=1;" vertex="1" parent="f_67vPmNaKxFUw4pG06K-1">
          <mxGeometry x="190" y="101.5" width="70" height="45" as="geometry" />
        </mxCell>
        <mxCell id="f_67vPmNaKxFUw4pG06K-15" value="" style="edgeStyle=orthogonalEdgeStyle;rounded=0;orthogonalLoop=1;jettySize=auto;html=1;" edge="1" parent="f_67vPmNaKxFUw4pG06K-1" source="f_67vPmNaKxFUw4pG06K-14" target="f_67vPmNaKxFUw4pG06K-11">
          <mxGeometry relative="1" as="geometry" />
        </mxCell>
        <mxCell id="f_67vPmNaKxFUw4pG06K-14" value="" style="sketch=0;outlineConnect=0;fontColor=#232F3E;gradientColor=none;fillColor=#232F3D;strokeColor=none;dashed=0;verticalLabelPosition=bottom;verticalAlign=top;align=center;html=1;fontSize=12;fontStyle=0;aspect=fixed;pointerEvents=1;shape=mxgraph.aws4.user;" vertex="1" parent="f_67vPmNaKxFUw4pG06K-1">
          <mxGeometry x="210" y="41" width="30" height="30" as="geometry" />
        </mxCell>
        <mxCell id="f_67vPmNaKxFUw4pG06K-18" value="管理员" style="text;html=1;resizable=0;autosize=1;align=center;verticalAlign=middle;points=[];fillColor=none;strokeColor=none;rounded=0;" vertex="1" parent="f_67vPmNaKxFUw4pG06K-1">
          <mxGeometry x="235" y="46" width="50" height="20" as="geometry" />
        </mxCell>
        <mxCell id="f_67vPmNaKxFUw4pG06K-21" value="" style="edgeStyle=orthogonalEdgeStyle;rounded=0;orthogonalLoop=1;jettySize=auto;html=1;" edge="1" parent="f_67vPmNaKxFUw4pG06K-1" source="f_67vPmNaKxFUw4pG06K-19" target="f_67vPmNaKxFUw4pG06K-3">
          <mxGeometry relative="1" as="geometry" />
        </mxCell>
        <mxCell id="f_67vPmNaKxFUw4pG06K-19" value="" style="sketch=0;outlineConnect=0;fontColor=#232F3E;gradientColor=none;fillColor=#232F3D;strokeColor=none;dashed=0;verticalLabelPosition=bottom;verticalAlign=top;align=center;html=1;fontSize=12;fontStyle=0;aspect=fixed;pointerEvents=1;shape=mxgraph.aws4.user;" vertex="1" parent="f_67vPmNaKxFUw4pG06K-1">
          <mxGeometry x="360" y="41" width="30" height="30" as="geometry" />
        </mxCell>
        <mxCell id="f_67vPmNaKxFUw4pG06K-20" value="开发者" style="text;html=1;resizable=0;autosize=1;align=center;verticalAlign=middle;points=[];fillColor=none;strokeColor=none;rounded=0;" vertex="1" parent="f_67vPmNaKxFUw4pG06K-1">
          <mxGeometry x="385" y="46" width="50" height="20" as="geometry" />
        </mxCell>
        <mxCell id="f_67vPmNaKxFUw4pG06K-5" value="ATS Client" style="swimlane;" vertex="1" parent="1">
          <mxGeometry x="80" y="290" width="480" height="130" as="geometry" />
        </mxCell>
        <mxCell id="f_67vPmNaKxFUw4pG06K-6" value="main branch" style="rounded=1;whiteSpace=wrap;html=1;" vertex="1" parent="f_67vPmNaKxFUw4pG06K-5">
          <mxGeometry x="50" y="50" width="110" height="50" as="geometry" />
        </mxCell>
        <mxCell id="f_67vPmNaKxFUw4pG06K-7" value="文件列表" style="rounded=1;whiteSpace=wrap;html=1;" vertex="1" parent="f_67vPmNaKxFUw4pG06K-5">
          <mxGeometry x="320" y="50" width="110" height="50" as="geometry" />
        </mxCell>
        <mxCell id="f_67vPmNaKxFUw4pG06K-8" value="下载" style="edgeStyle=orthogonalEdgeStyle;rounded=0;orthogonalLoop=1;jettySize=auto;html=1;exitX=0.75;exitY=1;exitDx=0;exitDy=0;entryX=0.75;entryY=0;entryDx=0;entryDy=0;" edge="1" parent="1" source="f_67vPmNaKxFUw4pG06K-3" target="f_67vPmNaKxFUw4pG06K-7">
          <mxGeometry x="-0.1429" relative="1" as="geometry">
            <mxPoint as="offset" />
          </mxGeometry>
        </mxCell>
        <mxCell id="f_67vPmNaKxFUw4pG06K-9" value="上传" style="edgeStyle=orthogonalEdgeStyle;rounded=0;orthogonalLoop=1;jettySize=auto;html=1;exitX=0.25;exitY=0;exitDx=0;exitDy=0;entryX=0.25;entryY=1;entryDx=0;entryDy=0;" edge="1" parent="1" source="f_67vPmNaKxFUw4pG06K-7" target="f_67vPmNaKxFUw4pG06K-3">
          <mxGeometry x="0.1429" relative="1" as="geometry">
            <mxPoint as="offset" />
          </mxGeometry>
        </mxCell>
      </root>
    </mxGraphModel>
  </diagram>
</mxfile>
